<svg xmlns="http://www.w3.org/2000/svg" version="1.1" xmlns:xlink="http://www.w3.org/1999/xlink" width="1000" height="1000"><g clip-path="url(#SvgjsClipPath1067)"><rect width="1000" height="1000" fill="#ffffff"></rect><g transform="matrix(0.23333333333333334,0,0,0.23333333333333334,150,150)"><svg xmlns="http://www.w3.org/2000/svg" version="1.1" xmlns:xlink="http://www.w3.org/1999/xlink" width="3000" height="3000"><svg id="Layer_1" xmlns="http://www.w3.org/2000/svg" version="1.1" viewBox="0 0 3000 3000">
  <!-- Generator: Adobe Illustrator 29.7.0, SVG Export Plug-In . SVG Version: 2.1.1 Build 88)  -->
  <path d="M2567.6,2633.5l-703.5-870.1c1063.3-296.5,885.4-1584.9-474.4-1588.9l-545.1,3.5s40.3,74.1,46.4,106.5c158.7-55.9,428-69.8,498.7-66.4,806.4,27.4,822.1,1407,87.1,1545.4l-146.4,12.1c-110.5,4-347.7,4-509.9,4v-237.8l-616.8-12.4v1254.2c0,35.5,0,126.6-181.9,138.4v19.8h980.6v-19.8c-181.9-11.7-181.9-102.8-181.9-138.4v-960.8h458.6l703.5,901.5c55.3,71,122.6,189.6-43.6,205.7v15.7h1039.9v-19.8c-154.5-19.8-276.7-126.7-411.4-292.5ZM203.8,1301.1v4.4c.7,0,1.8,0,2.9-.4-1.1-1.5-1.8-2.9-2.9-4Z"></path>
  <path d="M203.8,1301.1c1.1,1.1,1.8,2.6,2.9,4-1.1.4-2.2.4-2.9.4v-4.4Z"></path>
  <path d="M894.6,1238.8l-74,182.6-616.7-12.4-79.5-169.5c-4.2-9.2,2.5-19.7,12.7-19.7h70.2c-24.7-33.6-60.1-81.9-66.2-91.5-1.6-3.2-2.3-6.9-1.4-10.5,20.2-54,41.1-107.2,61.3-161.2,6-14.9,11.7-30.5,17.7-46.6-34.9,31.7-97.1,21.3-132.9-9.2-33.1-29.8-45-76.7-30.3-118.9,3.9,9.9,14,29.7,14.5,30.1,18.6,30.3,58.3,39.9,88.6,21.1,6.6-4.1,11.9-10.6,14.9-17.9-57,3.2-89.6-17.4-98.7-61.7-6.9-29.4,6.2-59.7,32.1-74.9-.7,7.3-2.3,15.4-2.8,23-1.4,12.6,4.2,25.3,14.3,33.1,14,10.8,32.1,14.5,49.1,9.6,9.2-1.4,15.6-10.1,14.3-19.5-.7-8.7-2.3-17.4-4.9-26-4.6-16.3-10.5-32.4-14.5-48.9-7.1-23,14.3-66.8,14-67.5-15.6,3-29.4,11.7-38.8,24.6-8.5,13.5-9.9,30.5-3.5,45.2-.7-.5-1.4-.9-1.8-1.4-33.8-22.7-42.7-68.4-20-102.1,7.1-9.7,14.7-18.6,23-27.1,17.2-17.4,25.7-41.3,23.4-65.7-1.2-11.2-2.3-22.5-2.5-33.7-3.2-30.8,5.3-61.6,23.6-86.3,17.7-20.7,41.1-35.8,67.3-43.4,5.1-1.2,9.6-3,14-5.5,14-8,14.3-20.4.5-28.9-4.1-2.3-35.4-5.8-45.2-.5-16.3,8.5-29.8,21.3-39.3,36.9-1.8,3-3.6,6-6.4,10.1,0-7.6-.2-13.6,0-19,.5-44.1,24.6-84.8,62.9-106.3,29.8-16.6,64.3-23.4,98.3-19.6,2.3.5,4.2.5,7.1.7-34.7-31.4-39.9-86.6-10.5-103.6-.2,4.6-.7,9.2-.7,14-.7,15.4,9.2,29.4,24.1,33.5,15.4,6,32.6,5.5,47.8-1.1,8.7-4.2,17-8.3,25.3-13.1,17.7-11.3,36.8-20,57-26.2,34.9-10.6,72.1-10.3,106.8.9,28.9,8.7,46.6,37.7,41.1,67.3-.2,3.5-1.2,6.9-1.4,9.2,8.5-4.6,17.7-9.4,26.7-13.6,19.3-7.3,34-23,40.2-42.2,1.8-5.8,3.4-12.9,11-12.2,7.1.7,9,8,9.6,14,3.2,26.4,6,53,8.3,79.5,1.4,11-.9,22-6.9,31.4-6,9.4-16.1,15.4-27.1,16.3,3.6,3.4,6.9,7.3,9.4,11.7,7.1,11.7,16.3,22,27.1,30.5,11.7,9.6,23.4,19.5,34.5,30.3,10.8,9.2,15.2,23.9,10.8,37.4-5.1,13.6-2.1,29.2,8,39.7,20,23.4,39.9,46.9,60.6,69.4,8.5,8.3,17.7,16.1,27.1,23.4,9.4,14,12.6,31.2,8.9,47.8-1.4,4.1-2.3,8.5-2.5,12.9-1.2,11.9-.5,24.3-2.8,36.5-1.6,12.4-13.1,21.1-25.5,19.6,0,0-7.6,0-8.3-.2-14.5-.7-26.8,10.3-27.8,24.8-2.1,10.6-5.5,13.6-16.5,13.1-7.8,0-15.9-1.2-23.7-1.2-17.7,3-36.1-.5-51.6-9.4-3.5-1.8-6.5-4.6-9-7.8-4.3-6.9-7.6-14.5-9.9-22.3-4.8-15.4-12.9-29.6-23.7-41.8-8-8-18.6-13.5-29.8-15.3-6.4-2.3-11.2,1.1-16.5,3.4-2.1.9-4.2,1.4-6.5,1.8-12.2,2.1-24.6.9-36-3.6-9.9-3.9-19.8-8.3-28.7-12.2-1.8,12.2-4.6,24.1-6.5,36.5-2.9,16.8,2.8,34,15.2,45.7,8.5,8.3,17.3,16.6,26.4,24.4,43.6,39,87.7,78.1,131.6,116.8,25,21.4,43.2,49.6,52.3,81.3,5.1,17,10.1,33.5,14.7,50.5l68,267.7c.4,3.2,0,6.5-1.6,9.4-10.1,15.9-37,54.6-58.2,84.6h82c9.8,0,16.6,9.9,13,19.1Z"></path>
</svg></svg></g></g><defs><clipPath id="SvgjsClipPath1067"><rect width="1000" height="1000" x="0" y="0" rx="200" ry="200"></rect></clipPath></defs></svg>