<svg xmlns="http://www.w3.org/2000/svg" version="1.1" xmlns:xlink="http://www.w3.org/1999/xlink" width="1000" height="1000"><g clip-path="url(#SvgjsClipPath1032)"><rect width="1000" height="1000" fill="#ffffff"></rect><g transform="matrix(0.8,0,0,0.8,100,100)"><svg xmlns="http://www.w3.org/2000/svg" version="1.1" xmlns:xlink="http://www.w3.org/1999/xlink" width="1000" height="1000"><svg id="Layer_2" data-name="Layer 2" xmlns="http://www.w3.org/2000/svg" viewBox="0 0 1000 1000">
  <defs>
    <style>
      .cls-1 {
        fill: none;
      }
    </style>
  <clipPath id="SvgjsClipPath1032"><rect width="1000" height="1000" x="0" y="0" rx="250" ry="250"></rect></clipPath></defs>
  <g id="Layer_1-2" data-name="Layer 1">
    <g>
      <rect class="cls-1" y="0" width="1000" height="1000"></rect>
      <path d="M811.91,873.75l-53.13,126.25-457.16-.55-58.7-125.22c-3.11-6.81,1.87-14.58,9.36-14.58h51.86c-18.24-24.81-44.4-60.5-48.92-67.58-1.21-2.35-1.69-5.08-1.04-7.77,14.93-39.87,30.37-79.23,45.3-119.1,4.42-11.02,8.64-22.56,13.06-34.41-25.78,23.39-71.76,15.76-98.2-6.81-24.43-22.04-33.27-56.63-22.39-87.86,2.87,7.32,10.33,21.91,10.68,22.25,13.72,22.39,43.09,29.51,65.48,15.58,4.91-3.04,8.81-7.81,11.02-13.23-42.08,2.38-66.17-12.89-72.94-45.61-5.08-21.73,4.56-44.12,23.74-55.32-.52,5.42-1.69,11.37-2.04,16.96-1,9.33,3.08,18.66,10.54,24.43,10.33,7.98,23.74,10.68,36.28,7.12,6.81-1,11.54-7.46,10.54-14.41-.52-6.46-1.73-12.89-3.59-19.18-3.39-12.02-7.77-23.91-10.68-36.11-5.25-16.96,10.54-49.37,10.37-49.89-11.54,2.21-21.73,8.67-28.68,18.17-6.29,9.99-7.29,22.53-2.56,33.41-.48-.35-1-.69-1.35-1.04-24.95-16.79-31.55-50.55-14.75-75.46,5.25-7.15,10.85-13.75,16.96-20.04,12.71-12.89,19-30.51,17.31-48.51-.86-8.29-1.69-16.62-1.87-24.91-2.38-22.73,3.9-45.47,17.45-63.78,13.06-15.27,30.37-26.47,49.72-32.06,3.73-.86,7.12-2.21,10.33-4.08,10.37-5.94,10.54-15.1.35-21.35-3.04-1.73-26.12-4.25-33.41-.35-12.06,6.25-22.04,15.76-29.02,27.3-1.35,2.21-2.7,4.42-4.73,7.46,0-5.6-.17-10.02,0-14.06.35-32.58,18.14-62.61,46.47-78.54,22.04-12.23,47.51-17.31,72.59-14.44,1.69.35,3.07.35,5.25.52-25.6-23.22-29.51-63.96-7.77-76.5-.17,3.39-.52,6.77-.52,10.33-.52,11.37,6.77,21.73,17.79,24.77,11.37,4.42,24.08,4.08,35.28-.83,6.46-3.07,12.58-6.12,18.66-9.67,13.06-8.33,27.16-14.75,42.08-19.35,25.78-7.81,53.24-7.64,78.88.69,21.35,6.43,34.41,27.81,30.37,49.69-.17,2.56-.86,5.11-1.04,6.81,6.29-3.42,13.06-6.98,19.69-10.02,14.24-5.42,25.09-16.96,29.68-31.2,1.35-4.25,2.52-9.5,8.12-9.02,5.25.52,6.63,5.94,7.12,10.37,2.38,19.49,4.42,39.18,6.12,58.7,1.04,8.12-.66,16.27-5.08,23.22-4.42,6.94-11.89,11.37-20,12.06,2.69,2.52,5.08,5.42,6.94,8.64,5.25,8.64,12.02,16.27,20.01,22.56,8.67,7.12,17.31,14.41,25.46,22.39,7.95,6.77,11.19,17.66,7.95,27.64-3.73,10.02-1.52,21.56,5.94,29.33,14.75,17.31,29.51,34.62,44.78,51.24,6.29,6.12,13.06,11.89,20.04,17.31,6.94,10.33,9.33,23.05,6.6,35.28-1,3.04-1.69,6.29-1.87,9.5-.86,8.81-.35,17.97-2.04,26.95-1.18,9.19-9.67,15.62-18.83,14.44,0,0-5.6,0-6.12-.17-10.68-.52-19.83,7.64-20.52,18.31-1.52,7.81-4.04,10.02-12.2,9.67-5.77,0-11.71-.86-17.48-.86-13.06,2.21-26.64-.35-38.15-6.94-2.56-1.35-4.77-3.39-6.63-5.77-3.21-5.08-5.6-10.68-7.29-16.45-3.56-11.37-9.5-21.87-17.48-30.89-5.91-5.91-13.72-9.99-22.04-11.33-4.73-1.73-8.29.83-12.2,2.52-1.52.69-3.08,1.04-4.77,1.35-8.98,1.55-18.14.69-26.6-2.7-7.33-2.9-14.62-6.12-21.22-8.98-1.35,8.98-3.39,17.79-4.77,26.95-2.18,12.4,2.04,25.12,11.19,33.76,6.29,6.12,12.75,12.23,19.52,18,32.24,28.82,64.78,57.67,97.19,86.31,18.49,15.79,31.89,36.66,38.66,60.05,3.73,12.58,7.46,24.77,10.88,37.32l50.2,197.77c.31,2.38,0,4.77-1.21,6.98-7.46,11.71-27.33,40.32-43.02,62.47h60.6c7.26,0,12.23,7.32,9.57,14.1Z"></path>
    </g>
  </g>
</svg></svg></g></g></svg>